<mxfile host="app.diagrams.net" modified="2024-02-12T15:26:21.045Z" agent="Mozilla/5.0 (Windows NT 10.0; Win64; x64) AppleWebKit/537.36 (KHTML, like Gecko) Chrome/121.0.0.0 Safari/537.36" etag="bLLaUnxuE66qPq6ECEHl" version="23.1.2" type="github">
  <diagram name="Page-1" id="Y9cvfK32fdEisMPxTqFR">
    <mxGraphModel dx="1434" dy="738" grid="1" gridSize="10" guides="1" tooltips="1" connect="1" arrows="1" fold="1" page="1" pageScale="1" pageWidth="850" pageHeight="1100" math="0" shadow="0">
      <root>
        <mxCell id="0" />
        <mxCell id="1" parent="0" />
        <mxCell id="uhYzfWu1lt_P014JSjNy-8" value="" style="edgeStyle=orthogonalEdgeStyle;rounded=0;orthogonalLoop=1;jettySize=auto;html=1;" edge="1" parent="1" source="uhYzfWu1lt_P014JSjNy-3" target="uhYzfWu1lt_P014JSjNy-4">
          <mxGeometry relative="1" as="geometry">
            <Array as="points">
              <mxPoint x="190" y="327" />
              <mxPoint x="190" y="327" />
            </Array>
          </mxGeometry>
        </mxCell>
        <mxCell id="uhYzfWu1lt_P014JSjNy-3" value="" style="outlineConnect=0;dashed=0;verticalLabelPosition=bottom;verticalAlign=top;align=center;html=1;shape=mxgraph.aws3.ec2;fillColor=#F58534;gradientColor=none;" vertex="1" parent="1">
          <mxGeometry x="40" y="280" width="76.5" height="93" as="geometry" />
        </mxCell>
        <mxCell id="uhYzfWu1lt_P014JSjNy-4" value="" style="outlineConnect=0;dashed=0;verticalLabelPosition=bottom;verticalAlign=top;align=center;html=1;shape=mxgraph.aws3.cloudwatch;fillColor=#759C3E;gradientColor=none;" vertex="1" parent="1">
          <mxGeometry x="230" y="270" width="82.5" height="93" as="geometry" />
        </mxCell>
        <mxCell id="uhYzfWu1lt_P014JSjNy-5" value="" style="image;aspect=fixed;html=1;points=[];align=center;fontSize=12;image=img/lib/azure2/management_governance/Metrics.svg;" vertex="1" parent="1">
          <mxGeometry x="410" y="273.16" width="80" height="86.67" as="geometry" />
        </mxCell>
        <mxCell id="uhYzfWu1lt_P014JSjNy-11" value="" style="edgeStyle=orthogonalEdgeStyle;rounded=0;orthogonalLoop=1;jettySize=auto;html=1;" edge="1" parent="1" source="uhYzfWu1lt_P014JSjNy-6" target="uhYzfWu1lt_P014JSjNy-7">
          <mxGeometry relative="1" as="geometry">
            <Array as="points">
              <mxPoint x="644" y="230" />
              <mxPoint x="644" y="230" />
            </Array>
          </mxGeometry>
        </mxCell>
        <mxCell id="uhYzfWu1lt_P014JSjNy-6" value="" style="sketch=0;points=[[0,0,0],[0.25,0,0],[0.5,0,0],[0.75,0,0],[1,0,0],[0,1,0],[0.25,1,0],[0.5,1,0],[0.75,1,0],[1,1,0],[0,0.25,0],[0,0.5,0],[0,0.75,0],[1,0.25,0],[1,0.5,0],[1,0.75,0]];outlineConnect=0;fontColor=#232F3E;fillColor=#E7157B;strokeColor=#ffffff;dashed=0;verticalLabelPosition=bottom;verticalAlign=top;align=center;html=1;fontSize=12;fontStyle=0;aspect=fixed;shape=mxgraph.aws4.resourceIcon;resIcon=mxgraph.aws4.sns;" vertex="1" parent="1">
          <mxGeometry x="605" y="281.83" width="78" height="78" as="geometry" />
        </mxCell>
        <mxCell id="uhYzfWu1lt_P014JSjNy-7" value="" style="outlineConnect=0;dashed=0;verticalLabelPosition=bottom;verticalAlign=top;align=center;html=1;shape=mxgraph.aws3.email_notification;fillColor=#D9A741;gradientColor=none;" vertex="1" parent="1">
          <mxGeometry x="582.5" y="140" width="100.5" height="63" as="geometry" />
        </mxCell>
        <mxCell id="uhYzfWu1lt_P014JSjNy-9" value="" style="edgeStyle=orthogonalEdgeStyle;rounded=0;orthogonalLoop=1;jettySize=auto;html=1;" edge="1" parent="1">
          <mxGeometry relative="1" as="geometry">
            <mxPoint x="297" y="324" as="sourcePoint" />
            <mxPoint x="410" y="324" as="targetPoint" />
            <Array as="points">
              <mxPoint x="370" y="324" />
              <mxPoint x="370" y="324" />
            </Array>
          </mxGeometry>
        </mxCell>
        <mxCell id="uhYzfWu1lt_P014JSjNy-10" value="" style="edgeStyle=orthogonalEdgeStyle;rounded=0;orthogonalLoop=1;jettySize=auto;html=1;" edge="1" parent="1">
          <mxGeometry relative="1" as="geometry">
            <mxPoint x="488" y="325" as="sourcePoint" />
            <mxPoint x="601" y="325" as="targetPoint" />
            <Array as="points">
              <mxPoint x="561" y="325" />
              <mxPoint x="561" y="325" />
            </Array>
          </mxGeometry>
        </mxCell>
        <mxCell id="uhYzfWu1lt_P014JSjNy-12" value="EC2 Instance" style="text;html=1;align=center;verticalAlign=middle;resizable=0;points=[];autosize=1;strokeColor=none;fillColor=none;" vertex="1" parent="1">
          <mxGeometry x="28.25" y="373" width="100" height="30" as="geometry" />
        </mxCell>
        <mxCell id="uhYzfWu1lt_P014JSjNy-13" value="CloudWatch logs" style="text;html=1;align=center;verticalAlign=middle;resizable=0;points=[];autosize=1;strokeColor=none;fillColor=none;" vertex="1" parent="1">
          <mxGeometry x="205" y="358" width="110" height="30" as="geometry" />
        </mxCell>
        <mxCell id="uhYzfWu1lt_P014JSjNy-14" value="Metrics" style="text;html=1;align=center;verticalAlign=middle;resizable=0;points=[];autosize=1;strokeColor=none;fillColor=none;" vertex="1" parent="1">
          <mxGeometry x="420" y="358" width="60" height="30" as="geometry" />
        </mxCell>
        <mxCell id="uhYzfWu1lt_P014JSjNy-15" value="SNS" style="text;html=1;align=center;verticalAlign=middle;resizable=0;points=[];autosize=1;strokeColor=none;fillColor=none;" vertex="1" parent="1">
          <mxGeometry x="625" y="358" width="50" height="30" as="geometry" />
        </mxCell>
        <mxCell id="uhYzfWu1lt_P014JSjNy-16" value="Email" style="text;html=1;align=center;verticalAlign=middle;resizable=0;points=[];autosize=1;strokeColor=none;fillColor=none;" vertex="1" parent="1">
          <mxGeometry x="614" y="111" width="50" height="30" as="geometry" />
        </mxCell>
      </root>
    </mxGraphModel>
  </diagram>
</mxfile>
